# xmcd
#
# Track frame offsets: 
#        150
#        6307
#        22135
#        36842
#        51217
#        55507
#        70640
#        87922
#        102765
#        123527
#        135890
#        159822
#        177535
#        192742
#        197615
#
# Disc length: 2886 seconds
#
# Revision: 0
# Processed by: cddbd v1.5.2PL0 Copyright (c) Steve Scherf et al.
# Submitted via: ExactAudioCopy v0.99pb4
#
DISCID=c50b440f
DTITLE=Sara - Enter My World
DYEAR=2003
DGENRE=R&B
TTITLE0=Interlude Enter My World
TTITLE1=What Would It Take
TTITLE2=Black Leather
TTITLE3=Fascinate Me
TTITLE4=Interlude Where Were You Last Night ?
TTITLE5=You Ain't Gotta Lie feat.Baby G
TTITLE6=Sweet Memories feat.Brenton Wood
TTITLE7=Keep Talking feat.Dominator
TTITLE8=I'm Talking My Time feat.Danny K.
TTITLE9=You're Not Ready
TTITLE10=When You Call
TTITLE11=The Things I Do
TTITLE12=Should Have Been Me
TTITLE13=Interlude Trust And Believe
TTITLE14=Destiny feat.Gina Rocha,Matt Kingsley And Baby G.
EXTD=
EXTT0=
EXTT1=
EXTT2=
EXTT3=
EXTT4=
EXTT5=
EXTT6=
EXTT7=
EXTT8=
EXTT9=
EXTT10=
EXTT11=
EXTT12=
EXTT13=
EXTT14=
PLAYORDER=
